# xmcd
#
# Track frame offsets: 
#        183
#        13375
#        39768
#        48425
#        60513
#        71688
#        86258
#        99690
#        110773
#        121728
#        139583
#        152290
#        159228
#        171525
#        178873
#        192015
#        203323
#        217583
#        234163
#        246825
#        259120
#        269028
#        280598
#        290323
#
# Disc length: 4048 seconds
#
# Revision: 0
# Processed by: cddbd v1.5.1PL2 Copyright (c) Steve Scherf et al.
# Submitted via: ExactAudioCopy v0.95b2
#
DISCID=420fce18
DTITLE=Various Artist - 50 of the greatest Love Songs
DYEAR=1999
DGENRE=Blues
TTITLE0=Spanish Harlem - Ben E.King
TTITLE1=Chek to Cheek - Fitzgerald/Armstrong
TTITLE2=Singin in the rain - Doris Day
TTITLE3=Roses are Red - Bobby Vinton
TTITLE4=Cry me a river - Dina Washington
TTITLE5=On the sunny side of the street - Peggy Lee
TTITLE6=September in the rain - Frank Sinatra
TTITLE7=Hawaiian wedding songs - Andy Williams
TTITLE8=I'm so lonesome I could cry - Billie Joe Spears
TTITLE9=Rainy night in Georgia - Brook Benton
TTITLE10=Under the moon of love - Curtis Lee
TTITLE11=He's wonderful - Doris Day
TTITLE12=Deep Purple - April Stevens/Nino Tempo
TTITLE13=When the red roses grow - Bing Crosby
TTITLE14=I'm so lonesome - B.J. Thomas
TTITLE15=My Happinness - Connie Francis
TTITLE16=I just can't help believing - B.J. Thomas
TTITLE17=Lean on me - Al Jarreau
TTITLE18=Raining in my heart - Buddy Holly
TTITLE19=All the time - Anne Murray
TTITLE20=It's in his kiss - Betty Everett
TTITLE21=The pied piper - Crispain St. Peters
TTITLE22=Release me - Barbara Mandrell
TTITLE23=You are my special angel - Bobby Helm
EXTD=
EXTT0=
EXTT1=
EXTT2=
EXTT3=
EXTT4=
EXTT5=
EXTT6=
EXTT7=
EXTT8=
EXTT9=
EXTT10=
EXTT11=
EXTT12=
EXTT13=
EXTT14=
EXTT15=
EXTT16=
EXTT17=
EXTT18=
EXTT19=
EXTT20=
EXTT21=
EXTT22=
EXTT23=
PLAYORDER=
